<svg width="20" height="20" viewBox="0 0 20 20" fill="none" xmlns="http://www.w3.org/2000/svg">
<rect opacity="0.5" width="20" height="20" rx="10" fill="#525252"/>
<path d="M9.15332 11.5816C9.15332 11.0621 9.21777 10.648 9.34668 10.3394C9.47559 10.0308 9.72949 9.69292 10.1084 9.32573C10.4912 8.95464 10.7334 8.69096 10.835 8.53471C10.9912 8.29643 11.0693 8.03862 11.0693 7.76128C11.0693 7.39409 10.9775 7.11479 10.7939 6.92339C10.6143 6.72807 10.3486 6.63042 9.99707 6.63042C9.66113 6.63042 9.38965 6.72612 9.18262 6.91753C8.97949 7.10503 8.87793 7.36089 8.87793 7.6851H7.4541C7.46191 6.9937 7.69629 6.44682 8.15723 6.04448C8.62207 5.64214 9.23535 5.44096 9.99707 5.44096C10.7822 5.44096 11.3936 5.64018 11.8311 6.03862C12.2725 6.43706 12.4932 6.9937 12.4932 7.70854C12.4932 8.34526 12.1963 8.97221 11.6025 9.5894L10.8818 10.2984C10.624 10.5914 10.4912 11.0191 10.4834 11.5816H9.15332ZM9.05371 13.4039C9.05371 13.1734 9.12598 12.9878 9.27051 12.8472C9.41504 12.7027 9.61035 12.6304 9.85645 12.6304C10.1064 12.6304 10.3037 12.7046 10.4482 12.8531C10.5928 12.9976 10.665 13.1812 10.665 13.4039C10.665 13.6187 10.5947 13.7984 10.4541 13.9429C10.3135 14.0874 10.1143 14.1597 9.85645 14.1597C9.59863 14.1597 9.39941 14.0874 9.25879 13.9429C9.12207 13.7984 9.05371 13.6187 9.05371 13.4039Z" fill="white"/>
</svg>
