<svg width="5" height="9" viewBox="0 0 5 9" fill="none" xmlns="http://www.w3.org/2000/svg">
<path d="M0.206869 0.213589C0.0733578 0.35352 -3.69859e-07 0.538623 -3.61267e-07 0.735167L-3.61096e-07 0.739096C0.00096183 0.934839 0.0747845 1.11806 0.207864 1.25535L3.23114 4.42401C3.27109 4.46587 3.27116 4.53403 3.23114 4.57597L0.206902 7.74563C-0.066822 8.03262 -0.0668219 8.49946 0.209126 8.78868C0.484542 9.07132 0.928971 9.07032 1.19988 8.78639L4.79087 5.02268C4.92475 4.88528 4.99901 4.7015 5 4.50513L5 4.5012C5 4.30466 4.92661 4.11956 4.79313 3.97963L1.19762 0.211294C0.922202 -0.0713149 0.47774 -0.0703068 0.206869 0.213589Z" fill="black"/>
</svg>
