<svg width="20" height="20" viewBox="0 0 20 20" fill="none" xmlns="http://www.w3.org/2000/svg">
<rect opacity="0.5" width="20" height="20" rx="10" fill="#525252"/>
<path d="M15.4072 10.605V9.43987C15.4072 9.26062 15.2692 9.12619 15.0851 9.08138L14.3029 8.99176C14.1648 8.99176 14.0728 8.90213 14.0268 8.7677C13.9348 8.54364 13.8427 8.31959 13.7507 8.14034C13.7047 8.00591 13.7047 7.87147 13.7967 7.78185L14.3029 7.15449C14.3949 7.02006 14.3949 6.84081 14.2569 6.70638L13.4286 5.89977C13.2905 5.76534 13.1065 5.76534 12.9684 5.85496L12.3242 6.34789C12.1862 6.43751 12.0481 6.43751 11.9101 6.3927C11.726 6.25827 11.496 6.21345 11.2659 6.12383C11.1279 6.07902 11.0358 5.9894 11.0358 5.85496L10.9438 5.04836C10.9438 4.86911 10.7597 4.73468 10.5757 4.73468H9.51733C9.28726 4.73468 9.1032 4.91393 9.05718 5.13798L8.96516 5.85496C8.96516 5.9894 8.87313 6.07902 8.73508 6.12383C8.50501 6.21345 8.27493 6.25827 8.04486 6.3927C7.90681 6.43751 7.76877 6.43751 7.67674 6.34789L7.03253 5.85496C6.89449 5.76534 6.71043 5.76534 6.57239 5.89977L5.74412 6.70638C5.60608 6.84081 5.60608 7.02006 5.6981 7.15449L6.20427 7.78185C6.2963 7.87147 6.2963 8.05072 6.25028 8.14034C6.15825 8.3644 6.06622 8.54364 5.97419 8.7677C5.92818 8.90213 5.83615 8.99176 5.6981 8.99176L4.91585 9.08138C4.73179 9.08138 4.59375 9.26062 4.59375 9.43987V10.605C4.59375 10.7842 4.73179 10.9186 4.91585 10.9635L5.6981 11.0531C5.83615 11.0531 5.92818 11.1427 5.97419 11.2771C6.06622 11.5012 6.15825 11.7252 6.25028 11.9045C6.2963 12.0389 6.2963 12.1734 6.20427 12.263L5.6981 12.8903C5.60608 13.0248 5.60608 13.204 5.74412 13.3385L6.57239 14.1451C6.71043 14.2795 6.89449 14.2795 7.03253 14.1899L7.67674 13.6969C7.76877 13.6073 7.95283 13.6073 8.04486 13.6521C8.27493 13.7418 8.45899 13.8314 8.68907 13.921C8.82711 13.9658 8.91914 14.0554 8.91914 14.1899L9.01117 14.9517C9.01117 15.1309 9.19523 15.2653 9.37929 15.2653H10.5757C10.7597 15.2653 10.8978 15.1309 10.9438 14.9517L11.0358 14.1899C11.0358 14.0554 11.1279 13.9658 11.2659 13.921C11.496 13.8314 11.726 13.7418 11.9101 13.6521C12.0481 13.6073 12.1862 13.6073 12.2782 13.6969L12.9224 14.1899C13.0605 14.2795 13.2445 14.2795 13.3826 14.1451L14.2108 13.3385C14.3489 13.204 14.3489 13.0248 14.2569 12.8903L13.7507 12.263C13.6587 12.1734 13.6587 11.9941 13.7047 11.9045C13.7967 11.6804 13.8887 11.5012 13.9808 11.2771C14.0268 11.1427 14.1188 11.0531 14.2569 11.0531L15.0391 10.9635C15.2692 10.9186 15.4072 10.7842 15.4072 10.605ZM9.97748 12.5767C8.55102 12.5767 7.35464 11.4564 7.35464 10.0224C7.35464 8.58845 8.50501 7.46817 9.97748 7.46817C11.45 7.46817 12.6003 8.58845 12.6003 10.0224C12.6003 11.4564 11.45 12.5767 9.97748 12.5767Z" fill="white"/>
</svg>
