<svg width="20" height="18" viewBox="0 0 20 18" fill="none" xmlns="http://www.w3.org/2000/svg">
<path d="M19.8169 8.27409L12.0442 0.811461C10.9168 -0.270487 9.08319 -0.270487 7.95584 0.811461L0.183107 8.27409C-0.0610357 8.50848 -0.0610357 8.88838 0.183107 9.12277C0.42686 9.35716 0.822957 9.35716 1.06671 9.12277L1.56242 8.64687V16.2749C1.56242 17.2276 2.36692 18 3.35931 18H6.48434C6.70008 18 6.87497 17.8321 6.87497 17.625V12.0746C6.87497 11.039 7.74943 10.1995 8.82811 10.1995H11.1719C12.2506 10.1995 13.125 11.039 13.125 12.0746V17.625C13.125 17.8321 13.2999 18 13.5157 18H16.6407C17.6331 18 18.4376 17.2276 18.4376 16.2749V8.64687L18.9333 9.12277C19.0552 9.23978 19.2153 9.29866 19.3751 9.29866C19.5349 9.29866 19.695 9.23978 19.8169 9.12277C20.061 8.88838 20.061 8.50848 19.8169 8.27409Z" fill="#373737"/>
</svg>
