<svg width="20" height="20" viewBox="0 0 20 20" fill="none" xmlns="http://www.w3.org/2000/svg">
<rect opacity="0.5" width="20" height="20" rx="10" fill="#525252"/>
<path d="M10.7109 14H9.28711V7.66016H10.7109V14ZM9.19922 6.01367C9.19922 5.79492 9.26758 5.61328 9.4043 5.46875C9.54492 5.32422 9.74414 5.25195 10.002 5.25195C10.2598 5.25195 10.459 5.32422 10.5996 5.46875C10.7402 5.61328 10.8105 5.79492 10.8105 6.01367C10.8105 6.22852 10.7402 6.4082 10.5996 6.55273C10.459 6.69336 10.2598 6.76367 10.002 6.76367C9.74414 6.76367 9.54492 6.69336 9.4043 6.55273C9.26758 6.4082 9.19922 6.22852 9.19922 6.01367Z" fill="white"/>
</svg>
