<svg width="17" height="13" viewBox="0 0 17 13" fill="none" xmlns="http://www.w3.org/2000/svg">
<path d="M8.5 0C3.81342 0 0 3.9 0 8.70278C0 11.3028 1.10482 13 1.10482 13H15.8952C15.8952 13 17 11.1403 17 8.70278C17 3.9 13.2044 0 8.5 0ZM15.2715 11.9347H1.76415C1.76415 11.9347 1.05136 10.5625 1.05136 8.66667C1.05136 4.45972 4.40147 1.04722 8.53564 1.04722C12.6698 1.04722 16.0199 4.45972 16.0199 8.66667C16.0199 10.5806 15.2715 11.9347 15.2715 11.9347Z" fill="white"/>
<path d="M10.906 2.3111H10.799L8.53595 6.80694L6.18375 2.27499L2.95838 10.4722H2.13867V11.1403H6.6827V10.4722H5.79171L6.6827 7.90833L8.53595 11.1403L10.3001 7.90833L11.2089 10.4722H10.3001V11.1403H14.8263V10.4722H14.0422L10.906 2.3111Z" fill="white"/>
</svg>
