<svg width="49" height="67" viewBox="0 0 49 67" fill="none" xmlns="http://www.w3.org/2000/svg">
<path d="M24.2649 0C10.8851 0 0 10.8851 0 24.2647C0 40.8692 21.7147 65.2456 22.6392 66.2752C23.5076 67.2424 25.0237 67.2407 25.8905 66.2752C26.8151 65.2456 48.5297 40.8692 48.5297 24.2647C48.5295 10.8851 37.6445 0 24.2649 0ZM24.2649 36.473C17.5332 36.473 12.0567 30.9964 12.0567 24.2647C12.0567 17.5331 17.5333 12.0566 24.2649 12.0566C30.9964 12.0566 36.4729 17.5332 36.4729 24.2649C36.4729 30.9965 30.9964 36.473 24.2649 36.473Z" fill="#2793F7"/>
<circle cx="24.5" cy="23.5" r="12.5" fill="white"/>
<path d="M28.383 28.6009H19.6083V22.7912L24.0006 18.6771L28.3929 22.7912V28.6009H28.383ZM31.7762 24.005L29.6592 22.0221L29.6493 22.0128L24.5249 17.2038C24.3864 17.0741 24.1985 17 24.0006 17C23.8028 17 23.6148 17.0741 23.4763 17.2038L18.3421 22.0128L16.2152 24.005C15.9283 24.2737 15.9283 24.7185 16.2152 24.9872C16.502 25.2559 16.9769 25.2559 17.2638 24.9872L18.1244 24.181V29.3051C18.1244 29.685 18.4608 30 18.8664 30H29.1349C29.5404 30 29.8768 29.685 29.8768 29.3051V24.181L30.7374 24.9872C30.8858 25.1262 31.0738 25.191 31.2618 25.191C31.4497 25.191 31.6377 25.1262 31.7861 24.9872C32.0729 24.7092 32.0729 24.2737 31.7762 24.005Z" fill="#0080FF"/>
</svg>
