<svg width="9" height="5" viewBox="0 0 9 5" fill="none" xmlns="http://www.w3.org/2000/svg">
<path d="M8.78641 0.206869C8.64648 0.0733582 8.46138 0 8.26483 0L8.2609 0C8.06516 0.000962183 7.88194 0.0747848 7.74465 0.207865L4.57599 3.23114C4.53413 3.27109 4.46597 3.27116 4.42403 3.23114L1.25437 0.206903C0.967379 -0.066822 0.500536 -0.0668219 0.21132 0.209126C-0.0713243 0.484542 -0.0703158 0.928971 0.213615 1.19988L3.97732 4.79087C4.11472 4.92475 4.2985 4.99901 4.49487 5H4.4988C4.69534 5 4.88044 4.92661 5.02037 4.79313L8.78871 1.19762C9.07131 0.922203 9.07031 0.47774 8.78641 0.206869Z" fill="#373737"/>
</svg>
