<?xml version="1.0" standalone="no"?>
<!DOCTYPE svg PUBLIC "-//W3C//DTD SVG 20010904//EN"
 "http://www.w3.org/TR/2001/REC-SVG-20010904/DTD/svg10.dtd">
<svg version="1.0" xmlns="http://www.w3.org/2000/svg"
 width="832.000000pt" height="832.000000pt" viewBox="0 0 832.000000 832.000000"
 preserveAspectRatio="xMidYMid meet">
<metadata>
Created by potrace 1.14, written by Peter Selinger 2001-2017
</metadata>
<g transform="translate(0.000000,832.000000) scale(0.100000,-0.100000)"
fill="#000000" stroke="none">
<path d="M4160 7341 c-95 -34 -78 -20 -383 -315 -104 -99 -226 -217 -272 -261
-46 -44 -167 -161 -270 -260 -103 -99 -206 -198 -230 -220 -23 -22 -140 -135
-261 -251 -120 -116 -241 -233 -269 -259 -50 -47 -406 -390 -515 -495 -31 -30
-148 -143 -260 -250 -112 -107 -227 -217 -255 -245 -71 -68 -444 -427 -515
-495 -330 -316 -440 -427 -451 -451 -6 -16 -16 -29 -22 -29 -6 0 -7 -3 -4 -6
3 -4 2 -15 -4 -26 -6 -10 -13 -47 -16 -82 -12 -141 64 -272 194 -333 62 -29
81 -33 153 -35 68 -2 164 25 210 60 19 14 67 56 105 93 128 124 269 260 312
300 l43 40 1 -1285 c1 -708 2 -1289 3 -1293 30 -119 91 -197 194 -249 l57 -29
2555 -2 c2563 -3 2605 -3 2630 28 3 4 14 9 25 13 63 20 156 150 171 236 4 25
7 613 6 1308 0 740 4 1262 9 1262 5 0 9 -4 9 -10 0 -5 4 -10 9 -10 5 0 64 -54
132 -121 296 -288 320 -307 419 -332 164 -42 332 35 405 187 32 67 34 78 31
152 -5 144 3 133 -456 574 -100 96 -218 209 -260 250 -43 41 -158 152 -255
245 -98 94 -215 206 -260 250 -79 76 -287 276 -508 488 -56 54 -194 187 -306
295 -310 299 -449 433 -526 507 -38 37 -162 156 -275 265 -113 109 -236 228
-275 265 -38 36 -159 152 -267 257 -216 209 -254 240 -319 264 -62 23 -183 26
-239 5z m211 -904 c102 -97 442 -424 539 -517 84 -81 453 -436 603 -580 72
-69 158 -152 193 -185 34 -33 141 -136 239 -230 437 -419 448 -430 437 -452
-6 -11 -9 -22 -7 -25 3 -3 6 -177 4 -228 -1 -8 -1 -62 0 -120 0 -58 0 -112 0
-120 -1 -8 -1 -62 0 -120 0 -58 0 -112 0 -120 -1 -8 -1 -62 0 -120 0 -58 0
-112 0 -120 -1 -8 -1 -62 0 -120 0 -58 0 -112 0 -120 -1 -8 -1 -62 0 -120 0
-58 0 -112 0 -120 -1 -8 -1 -62 0 -120 0 -58 0 -112 0 -120 -1 -8 -1 -62 0
-120 0 -58 0 -112 0 -120 -1 -8 -1 -62 0 -120 0 -58 0 -112 0 -120 -1 -8 -1
-62 0 -120 0 -58 0 -112 0 -120 -1 -8 -1 -62 0 -120 1 -58 0 -148 -1 -200 l-3
-95 -2095 -1 c-1152 0 -2100 1 -2106 3 -8 3 -11 413 -11 1431 l0 1427 116 113
c64 63 178 173 254 245 76 73 182 175 237 227 54 52 183 176 286 275 103 99
217 209 254 245 163 157 318 307 481 462 96 92 242 232 324 312 83 80 152 146
155 146 3 0 48 -42 101 -93z"/>
</g>
</svg>
