<svg width="80" height="26" viewBox="0 0 80 26" fill="none" xmlns="http://www.w3.org/2000/svg">
<path d="M18.1106 24.4682L17.9429 22.4091H11V13H13.1234V20.9091H16.3364V13H18.4738V20.9091H19.6193V24.4682H18.1106Z" fill="#2C5EDF"/>
<path d="M25.3317 19.7227H22.8451C22.9103 20.2136 23.064 20.5455 23.3061 20.7182C23.5482 20.8818 23.9394 20.9636 24.4795 20.9636C25.2153 20.9636 26.0721 20.9136 27.05 20.8136L27.2455 22.0682C26.5284 22.4045 25.5273 22.5727 24.2421 22.5727C22.9475 22.5727 22.0255 22.3 21.4761 21.7545C20.9266 21.2091 20.6519 20.3091 20.6519 19.0545C20.6519 17.7455 20.9219 16.8273 21.4621 16.3C22.0023 15.7636 22.901 15.4955 24.1582 15.4955C25.3038 15.4955 26.1326 15.6909 26.6449 16.0818C27.1571 16.4636 27.4178 17.05 27.4272 17.8409C27.4272 18.4682 27.2595 18.9409 26.9242 19.2591C26.5983 19.5682 26.0674 19.7227 25.3317 19.7227ZM22.8032 18.5091H24.7589C25.0197 18.5091 25.192 18.45 25.2758 18.3318C25.3596 18.2136 25.4015 18.0409 25.4015 17.8136C25.4015 17.4955 25.3177 17.2773 25.1501 17.1591C24.9825 17.0318 24.6751 16.9682 24.2281 16.9682C23.6972 16.9682 23.334 17.0727 23.1385 17.2818C22.9429 17.4818 22.8311 17.8909 22.8032 18.5091Z" fill="#2C5EDF"/>
<path d="M35.648 15.6864V22.4091H33.6224V19.5591H31.0101V22.4091H28.9705V15.6864H31.0101V18.1545H33.6224V15.6864H35.648Z" fill="#2C5EDF"/>
<path d="M43.562 17.2409H41.271V22.4091H39.2314V17.2409H36.9404V15.6864H43.562V17.2409Z" fill="#2C5EDF"/>
<path d="M46.5194 15.6864L46.673 16.6682C46.9617 16.3318 47.3575 16.0545 47.8604 15.8364C48.3727 15.6182 48.8895 15.5091 49.4111 15.5091C51.0036 15.5091 51.7999 16.7091 51.7999 19.1091C51.7999 20.4 51.5857 21.3045 51.1573 21.8227C50.7289 22.3318 50.063 22.5864 49.1596 22.5864C48.2283 22.5864 47.46 22.3682 46.8546 21.9318C46.9012 22.3955 46.9152 22.8773 46.8965 23.3773V25H44.843V15.6864H46.5194ZM46.8965 17.7318V20.8136C47.623 20.9955 48.1445 21.0864 48.4611 21.0864C48.9268 21.0864 49.2434 20.9591 49.4111 20.7045C49.588 20.45 49.6765 19.9182 49.6765 19.1091C49.6765 18.3182 49.5973 17.7864 49.439 17.5136C49.2807 17.2318 49.0013 17.0909 48.6008 17.0909C48.1352 17.0909 47.5671 17.3045 46.8965 17.7318Z" fill="#2C5EDF"/>
<path d="M57.4931 19.6H53.3301V18.2773H57.4931V19.6Z" fill="#2C5EDF"/>
<path d="M67.1889 13H69.2425C69.7454 13 70.0108 13.2591 70.0387 13.7773L70.402 22.4091H68.3903L68.083 14.6227H67.8315L66.3787 20.4455C66.2856 20.8909 66.0015 21.1136 65.5265 21.1136H64.1296C63.6546 21.1136 63.3612 20.8909 63.2495 20.4455L61.7827 14.6227H61.5452L61.2658 22.4091H59.2681L59.6174 13.7773C59.636 13.2591 59.9014 13 60.4136 13H62.4672C62.9142 13 63.1936 13.2227 63.3054 13.6682L64.4788 18.3591C64.5161 18.5409 64.5626 18.7955 64.6185 19.1227C64.6837 19.45 64.7209 19.6364 64.7303 19.6818H64.9119C64.9212 19.6364 64.9538 19.45 65.0097 19.1227C65.0748 18.7955 65.1261 18.5409 65.1633 18.3591L66.3228 13.6682C66.4252 13.2227 66.714 13 67.1889 13Z" fill="#2C5EDF"/>
<path d="M76.6892 17.4727V17.5273C76.8661 17.5545 77.0291 17.5864 77.1781 17.6227C77.3271 17.65 77.4668 17.7 77.5972 17.7727C77.7369 17.8455 77.858 17.9091 77.9604 17.9636C78.0629 18.0182 78.1653 18.1182 78.2678 18.2636C78.3795 18.4 78.468 18.5091 78.5332 18.5909C78.6077 18.6727 78.6915 18.8227 78.7846 19.0409C78.8871 19.2591 78.9662 19.4318 79.0221 19.5591C79.078 19.6773 79.1572 19.8909 79.2596 20.2C79.3714 20.5091 79.4552 20.75 79.5111 20.9227C79.5669 21.0864 79.6601 21.3682 79.7905 21.7682C79.8836 22.05 79.9534 22.2636 80 22.4091H77.7788C77.2573 20.7455 76.9034 19.7273 76.7171 19.3545C76.4284 18.7818 76.0652 18.4409 75.6275 18.3318C75.4599 18.2864 75.2689 18.2636 75.0547 18.2636H74.3702C74.4447 18.6 74.482 18.9 74.482 19.1636V22.4091H72.3586V13H74.482V15.6591C74.482 16.0136 74.4447 16.3864 74.3702 16.7773H75.0268C75.688 16.7773 76.163 16.5318 76.4517 16.0409C76.7497 15.55 77.1129 14.5818 77.5413 13.1364C77.56 13.0727 77.5739 13.0273 77.5832 13H79.7486C79.227 14.6 78.8964 15.55 78.7567 15.85C78.4307 16.5591 78.021 17.0273 77.5274 17.2545C77.2945 17.3545 77.0151 17.4273 76.6892 17.4727Z" fill="#2C5EDF"/>
<path d="M24.8368 9.52759V5.70451H26.2776V9.47914V9.62914H26.4276H33H33.15V9.47914V8.02557V7.87557H33H28.0417V4.10094V3.95094H27.8917H23.2389H23.0889V4.10094V7.94018H22.2758L15.1779 0.89355L15.0722 0.788634L14.9665 0.89355L0.89432 14.8639L0.787094 14.9704L0.89432 15.0768L1.91923 16.0943L2.0246 16.1989L2.13027 16.0947L4.60801 13.6495V25V25.15H4.75801H6.22217H6.37217V25V11.8996L15.0722 3.26251L21.4902 9.63404L21.534 9.67759H21.5958H24.6868H24.8368V9.52759Z" fill="#2C5EDF" stroke="#2C5EDF" stroke-width="0.3"/>
</svg>
